<svg width="256" height="256" viewBox="0 0 256 256" xmlns="http://www.w3.org/2000/svg">
  <defs>
    <linearGradient id="g1" x1="0" y1="0" x2="1" y2="1">
      <stop offset="0%" stop-color="#06b6d4"/>
      <stop offset="50%" stop-color="#3b82f6"/>
      <stop offset="100%" stop-color="#a21caf"/>
    </linearGradient>
    <linearGradient id="g2" x1="0" y1="0" x2="0" y2="1">
      <stop offset="0%" stop-color="rgba(6,182,212,0.15)"/>
      <stop offset="100%" stop-color="rgba(162,28,175,0.05)"/>
    </linearGradient>
    <filter id="shadow" x="-20%" y="-20%" width="140%" height="140%">
      <feDropShadow dx="0" dy="2" stdDeviation="3" flood-color="#3b82f6" flood-opacity="0.25"/>
    </filter>
  </defs>
  <rect x="0" y="0" width="256" height="256" rx="32" fill="url(#g2)"/>
  <g filter="url(#shadow)">
    <circle cx="128" cy="128" r="70" fill="white" stroke="url(#g1)" stroke-width="10"/>
    <path d="M78 148 L108 118 L128 138 L168 98" fill="none" stroke="url(#g1)" stroke-width="10" stroke-linecap="round" stroke-linejoin="round"/>
    <path d="M170 96 L170 126 L140 126" fill="none" stroke="url(#g1)" stroke-width="10" stroke-linecap="round" stroke-linejoin="round"/>
    <path d="M128 108 c-18 0 -28 10 -28 24 c0 14 10 24 28 24 c18 0 28 -10 28 -24" fill="none" stroke="#3b82f6" stroke-width="6"/>
    <path d="M128 96 v64" stroke="#a21caf" stroke-width="6" stroke-linecap="round"/>
  </g>
  <g>
    <rect x="36" y="176" width="40" height="6" rx="3" fill="#06b6d4"/>
    <rect x="28" y="190" width="56" height="6" rx="3" fill="#3b82f6"/>
  </g>
</svg>

